<svg xmlns="http://www.w3.org/2000/svg" height="60.493" width="334.267">
  <path d="M94.874.006L55.677.008v15.131h39.197c8.516 0 15.404 6.531 15.404 15.048 0 8.515-6.888 15.28-15.404 15.28H70.381v15.026h24.493c16.658 0 31.184-13.778 31.184-30.306 0-16.657-14.526-30.18-31.184-30.18" fill="#62cbe2"/>
  <path d="M153.536 20.524c0-2.632-.335-4.518-1.003-5.661-.669-1.142-1.714-1.714-3.137-1.714h-2.393v14.748h2.07c1.379 0 2.467-.582 3.266-1.747.798-1.164 1.197-3.04 1.197-5.626zm5.885-.324c0 2.328-.269 4.324-.808 5.983-.538 1.66-1.282 3.019-2.23 4.075-.95 1.057-2.039 1.844-3.268 2.36a9.964 9.964 0 0 1-3.914.778h-2.198v19.535h-5.822V7.65h8.28c1.379 0 2.672.216 3.88.646a7.948 7.948 0 0 1 3.171 2.103c.905.97 1.616 2.263 2.133 3.88.519 1.618.776 3.59.776 5.92M175.528 20.2c0-2.63-.333-4.464-1.003-5.498-.669-1.036-1.713-1.553-3.136-1.553h-2.393v14.102h2.068c1.38 0 2.47-.528 3.268-1.585.797-1.057 1.196-2.879 1.196-5.466zm.388 32.73l-4.268-20.375h-2.652V52.93h-5.823V7.65h8.216c1.379 0 2.675.193 3.888.581a7.606 7.606 0 0 1 3.191 2.006c.917.949 1.645 2.199 2.193 3.752.546 1.552.819 3.515.819 5.886 0 2.717-.37 4.98-1.113 6.792-.743 1.812-1.811 3.213-3.207 4.205l4.837 22.058h-6.081M198.556 30.485c0-3.494-.075-6.382-.225-8.669-.152-2.284-.388-4.096-.712-5.433-.326-1.336-.744-2.275-1.263-2.814-.519-.539-1.123-.808-1.81-.808-.734 0-1.338.258-1.81.776-.476.517-.853 1.434-1.132 2.75-.281 1.315-.488 3.094-.615 5.336-.13 2.243-.196 5.067-.196 8.473 0 3.494.076 6.383.227 8.668.15 2.287.377 4.098.68 5.434.3 1.337.7 2.275 1.195 2.814a2.4 2.4 0 0 0 1.844.808c.69 0 1.284-.259 1.778-.776.498-.517.896-1.433 1.199-2.749.301-1.315.517-3.093.645-5.337.131-2.24.195-5.066.195-8.473zm5.95-.324c0 3.71-.129 7.019-.387 9.929-.258 2.911-.755 5.37-1.49 7.375-.732 2.005-1.744 3.536-3.038 4.592-1.295 1.056-2.975 1.585-5.044 1.585-1.986 0-3.603-.517-4.852-1.552-1.252-1.036-2.232-2.534-2.944-4.495-.711-1.964-1.207-4.388-1.488-7.279-.282-2.888-.42-6.187-.42-9.896 0-3.708.129-7.018.388-9.93.258-2.91.753-5.369 1.488-7.374.732-2.005 1.724-3.535 2.976-4.592 1.249-1.057 2.888-1.585 4.916-1.585 2.026 0 3.674.528 4.948 1.585 1.272 1.057 2.274 2.587 3.008 4.592.732 2.005 1.24 4.442 1.518 7.31.282 2.868.422 6.112.422 9.735M206.9 52.93v-5.294l8.41-27.448c.171-.516.366-1.108.582-1.775.215-.667.43-1.336.647-2.003.216-.667.432-1.291.645-1.872.216-.582.39-1.045.519-1.389-.519 0-1.219.011-2.102.032-.885.022-1.802.033-2.75.033h-5.175V7.65h15.396v5.295l-8.347 27.124c-.17.603-.377 1.249-.612 1.938a89.62 89.62 0 0 0-.678 2.035 65.792 65.792 0 0 1-.65 1.905 73.71 73.71 0 0 0-.514 1.484c.514 0 1.164-.01 1.94-.032a97.06 97.06 0 0 1 2.588-.032h6.273v5.563H206.9M237.173 23.822c-.129-1.078-.257-2.123-.388-3.137a63.986 63.986 0 0 1-.322-3.138 67.378 67.378 0 0 1-.326 3.138 269.09 269.09 0 0 0-.385 3.202l-1.62 12.549h4.724zm3.946 29.109l-1.487-10.867h-6.21l-1.425 10.867h-5.886l7.376-45.28h6.338l7.31 45.28h-6.016M262.723 52.93l-5.174-21.798-1.425 3.557V52.93h-5.627V7.65h5.627v10.802c0 1.251-.01 2.566-.03 3.946-.025 1.38-.035 2.566-.035 3.558.13-.475.313-1.078.55-1.811a129.249 129.249 0 0 1 1.52-4.432c.26-.71.478-1.303.647-1.779l3.755-10.284h6.013l-6.985 16.818 7.114 28.462h-5.95M283.616 52.93c.13-3.364.357-6.219.68-8.57.323-2.351.797-4.463 1.423-6.34a24.533 24.533 0 0 1 2.424-5.206c.994-1.595 2.224-3.321 3.69-5.175 1.294-1.639 2.187-3.224 2.682-4.755.497-1.53.745-3.115.745-4.755 0-1.94-.185-3.352-.55-4.237-.367-.883-1.046-1.325-2.037-1.325-1.036 0-1.77.528-2.2 1.585-.432 1.057-.776 2.9-1.033 5.53l-5.693-.777c.128-1.681.364-3.255.71-4.722.344-1.465.863-2.727 1.552-3.783a7.728 7.728 0 0 1 2.686-2.523c1.098-.624 2.469-.938 4.106-.938 1.511 0 2.792.28 3.85.84a6.834 6.834 0 0 1 2.557 2.33c.645.992 1.12 2.157 1.421 3.493.3 1.337.454 2.78.454 4.333 0 2.243-.402 4.422-1.198 6.534-.797 2.113-2.102 4.356-3.914 6.727-1.164 1.51-2.134 2.91-2.91 4.205a23.206 23.206 0 0 0-1.877 3.848 22.702 22.702 0 0 0-1.068 3.882 28.723 28.723 0 0 0-.419 4.3h11.451v5.5h-17.532M312.4 49.827c0 1.078-.356 1.982-1.067 2.716-.712.732-1.628 1.099-2.748 1.099-1.078 0-1.974-.367-2.685-1.1-.713-.733-1.067-1.637-1.067-2.715 0-1.078.354-1.985 1.067-2.718.71-.733 1.607-1.1 2.685-1.1 1.12 0 2.036.367 2.748 1.1.711.733 1.067 1.64 1.067 2.718M328.377 30.485c0-3.622-.076-6.588-.226-8.895-.151-2.306-.378-4.117-.678-5.434-.302-1.314-.693-2.22-1.166-2.716-.474-.496-1.034-.744-1.68-.744-.648 0-1.198.248-1.651.744-.453.496-.82 1.402-1.099 2.716-.281 1.317-.477 3.095-.584 5.337-.106 2.242-.161 5.11-.161 8.603 0 3.666.065 6.653.196 8.96.13 2.307.343 4.119.645 5.432.303 1.318.691 2.211 1.164 2.685.474.475 1.036.711 1.683.711.645 0 1.197-.236 1.65-.711.451-.474.818-1.346 1.1-2.62.278-1.27.485-3.039.614-5.304.128-2.264.193-5.185.193-8.764zm5.888-.324c0 3.71-.144 7.019-.422 9.929-.282 2.911-.776 5.37-1.487 7.375-.71 2.005-1.692 3.536-2.943 4.592-1.252 1.056-2.846 1.585-4.786 1.585-1.899 0-3.454-.517-4.659-1.552-1.208-1.036-2.156-2.534-2.847-4.495-.689-1.964-1.174-4.388-1.454-7.279-.282-2.888-.42-6.187-.42-9.896 0-3.708.13-7.018.388-9.93.257-2.91.745-5.369 1.456-7.374.71-2.005 1.682-3.535 2.91-4.592 1.23-1.057 2.792-1.585 4.688-1.585 1.94 0 3.527.528 4.755 1.585 1.23 1.057 2.201 2.587 2.912 4.592.71 2.005 1.205 4.442 1.487 7.31.278 2.868.422 6.112.422 9.735M31.183.008h24.494v60.485H31.183C14.526 60.493 0 46.967 0 30.313 0 13.786 14.526.009 31.183.009" fill="#231f20"/>
</svg>
