<svg xmlns="http://www.w3.org/2000/svg" height="121.467" width="193.08">
  <g fill="#231f20">
    <path d="M12.354 88.348c0-2.63-.336-4.518-1.002-5.661-.67-1.14-1.714-1.714-3.138-1.714H5.82v14.749h2.07c1.38 0 2.47-.582 3.266-1.746.8-1.164 1.198-3.04 1.198-5.628zm5.886-.323c0 2.329-.269 4.323-.808 5.982-.539 1.662-1.284 3.02-2.231 4.075-.951 1.058-2.04 1.845-3.269 2.362a9.976 9.976 0 0 1-3.911.777h-2.2v19.535H0v-45.28h8.279c1.38 0 2.672.216 3.88.645a7.97 7.97 0 0 1 3.172 2.104c.903.97 1.614 2.264 2.133 3.881.518 1.617.776 3.59.776 5.92M34.346 88.025c0-2.63-.333-4.463-1.002-5.498-.67-1.035-1.714-1.554-3.138-1.554h-2.393v14.102h2.07c1.38 0 2.469-.528 3.265-1.583.8-1.058 1.198-2.881 1.198-5.467zm.388 32.73l-4.268-20.375h-2.653v20.376h-5.82v-45.28h8.213c1.38 0 2.677.193 3.888.58a7.615 7.615 0 0 1 3.192 2.007c.917.95 1.646 2.2 2.193 3.752.544 1.551.818 3.515.818 5.886 0 2.718-.37 4.98-1.112 6.792-.742 1.811-1.813 3.213-3.208 4.204l4.838 22.059h-6.08M57.375 98.31c0-3.493-.076-6.382-.227-8.669-.15-2.285-.388-4.095-.71-5.433-.326-1.337-.745-2.274-1.263-2.814-.519-.538-1.123-.809-1.81-.809-.735 0-1.339.26-1.81.776-.477.519-.854 1.435-1.133 2.75-.281 1.316-.487 3.094-.615 5.336-.13 2.244-.195 5.068-.195 8.474 0 3.494.075 6.383.227 8.67.15 2.285.377 4.096.68 5.432.299 1.337.7 2.276 1.195 2.815.497.54 1.109.807 1.843.807.69 0 1.284-.258 1.779-.776.497-.518.896-1.434 1.198-2.749.302-1.315.518-3.093.646-5.337.13-2.242.195-5.066.195-8.474zm5.95-.324c0 3.71-.13 7.019-.388 9.93-.257 2.91-.755 5.368-1.49 7.374-.73 2.005-1.744 3.536-3.038 4.592-1.294 1.056-2.974 1.585-5.044 1.585-1.985 0-3.602-.518-4.852-1.552-1.253-1.035-2.232-2.533-2.945-4.496-.711-1.961-1.206-4.388-1.487-7.276-.282-2.89-.42-6.188-.42-9.9 0-3.707.128-7.017.388-9.927.258-2.912.753-5.369 1.487-7.375.732-2.004 1.724-3.536 2.977-4.593 1.25-1.056 2.888-1.584 4.917-1.584 2.026 0 3.674.528 4.948 1.584 1.27 1.057 2.273 2.589 3.007 4.593.732 2.006 1.24 4.442 1.519 7.31.28 2.868.421 6.113.421 9.735M65.719 120.756v-5.296l8.409-27.447c.171-.516.367-1.108.583-1.776l.646-2.002c.216-.668.432-1.29.646-1.872l.518-1.39c-.518 0-1.219.012-2.102.034-.885.02-1.802.031-2.75.031h-5.174v-5.562H81.89v5.294l-8.347 27.125a41.109 41.109 0 0 1-.612 1.937c-.24.69-.466 1.367-.68 2.036a66.327 66.327 0 0 1-.648 1.905 75.943 75.943 0 0 0-.515 1.484c.515 0 1.164-.01 1.94-.031a90.286 90.286 0 0 1 2.588-.034h6.274v5.564H65.719M95.992 91.648a410.48 410.48 0 0 0-.388-3.138 62.146 62.146 0 0 1-.323-3.139 68.562 68.562 0 0 1-.325 3.139 269 269 0 0 0-.386 3.201l-1.62 12.55h4.725zm3.945 29.108l-1.486-10.869H92.24l-1.425 10.869H84.93l7.375-45.28h6.338l7.31 45.28h-6.016M121.542 120.756l-5.175-21.798-1.424 3.557v18.24h-5.628V75.477h5.628v10.802c0 1.251-.01 2.566-.032 3.945a212.14 212.14 0 0 0-.033 3.559c.13-.475.312-1.078.55-1.811a129.024 129.024 0 0 1 1.52-4.433c.26-.71.477-1.302.646-1.778l3.755-10.284h6.013l-6.984 16.818 7.114 28.462h-5.95M142.435 120.756c.13-3.363.357-6.22.68-8.572.322-2.349.797-4.463 1.421-6.338a24.616 24.616 0 0 1 2.425-5.209c.995-1.593 2.224-3.32 3.69-5.174 1.294-1.638 2.188-3.223 2.682-4.754.498-1.53.746-3.115.746-4.754 0-1.94-.186-3.353-.551-4.237-.367-.884-1.047-1.325-2.036-1.325-1.036 0-1.77.528-2.2 1.583-.432 1.057-.776 2.901-1.035 5.531l-5.692-.776c.128-1.682.364-3.255.711-4.723.344-1.464.863-2.727 1.552-3.783a7.73 7.73 0 0 1 2.685-2.522c1.099-.626 2.468-.94 4.107-.94 1.51 0 2.792.28 3.85.842a6.831 6.831 0 0 1 2.557 2.33c.645.992 1.118 2.156 1.421 3.492.3 1.337.453 2.78.453 4.333 0 2.243-.401 4.422-1.198 6.534-.796 2.114-2.102 4.356-3.914 6.727-1.164 1.51-2.133 2.91-2.909 4.205a23.12 23.12 0 0 0-1.877 3.849 22.548 22.548 0 0 0-1.068 3.88 28.585 28.585 0 0 0-.419 4.302h11.45v5.499h-17.531M171.219 117.65c0 1.08-.358 1.985-1.068 2.718-.711.733-1.627 1.099-2.747 1.099-1.079 0-1.975-.366-2.685-1.1-.714-.732-1.068-1.637-1.068-2.717 0-1.077.354-1.981 1.068-2.716.71-.733 1.606-1.1 2.685-1.1 1.12 0 2.036.367 2.747 1.1.71.735 1.068 1.64 1.068 2.716M187.195 98.31c0-3.623-.075-6.587-.226-8.895-.152-2.306-.378-4.118-.677-5.434-.303-1.315-.693-2.22-1.167-2.716-.474-.495-1.034-.745-1.68-.745-.648 0-1.197.25-1.65.745-.454.496-.822 1.4-1.1 2.716-.28 1.316-.476 3.095-.583 5.337-.107 2.242-.161 5.111-.161 8.603 0 3.667.065 6.652.194 8.96.131 2.307.344 4.118.647 5.434.301 1.315.69 2.21 1.164 2.684.473.474 1.036.711 1.683.711a2.2 2.2 0 0 0 1.65-.711c.451-.473.818-1.347 1.099-2.62.279-1.272.484-3.04.615-5.304.128-2.265.192-5.185.192-8.766zm5.889-.324c0 3.71-.144 7.019-.423 9.93-.281 2.91-.776 5.368-1.486 7.374-.711 2.005-1.694 3.536-2.943 4.592-1.253 1.056-2.847 1.585-4.787 1.585-1.898 0-3.453-.518-4.658-1.552-1.208-1.035-2.156-2.533-2.847-4.496-.69-1.961-1.175-4.388-1.456-7.276-.281-2.89-.419-6.188-.419-9.9 0-3.707.13-7.017.388-9.927.258-2.912.744-5.369 1.456-7.375.711-2.004 1.682-3.536 2.911-4.593 1.23-1.056 2.792-1.584 4.688-1.584 1.94 0 3.525.528 4.755 1.584 1.229 1.057 2.201 2.589 2.912 4.593.71 2.006 1.205 4.442 1.486 7.31.279 2.868.423 6.113.423 9.735M127.442.002L88.245.003H63.75C47.094.003 32.568 13.78 32.568 30.31c0 16.654 14.526 30.18 31.182 30.18h24.495V15.135h39.197c8.517 0 15.405 6.53 15.405 15.048 0 8.515-6.888 15.278-15.405 15.278h-24.494V60.49h24.494c16.657 0 31.183-13.778 31.183-30.306 0-16.658-14.526-30.18-31.183-30.18" fill="#fff"/>
  </g>
</svg>
