<svg xmlns="http://www.w3.org/2000/svg" width="1024" height="708.26" viewBox="0 0 270.933 187.394" onclick="window.open('https://goo.gl/maps/eQtzd6aNnVs', '_blank');">
  <style>
  .path1{
  stroke-dasharray:188 190;
  stroke-dashoffset:189;
  animation: draw 2000ms linear 0ms forwards;
  -webkit-animation: draw 2000ms linear 0ms forwards;
  }
  .path2{
  stroke-dasharray:281 283;
  stroke-dashoffset:282;
  animation: draw 2000ms linear 333ms forwards;
  -webkit-animation: draw 2000ms linear 0ms forwards;
  }
  .path3{
  stroke-dasharray:122 124;
  stroke-dashoffset:123;
  animation: draw 2000ms linear 666ms forwards;
  -webkit-animation: draw 2000ms linear 0ms forwards;
  }
  .path4{
  stroke-dasharray:94 96;
  stroke-dashoffset:95;
  animation: draw 2000ms linear 1000ms forwards;
  -webkit-animation: draw 2000ms linear 0ms forwards;
  }
  @keyframes draw{100%{stroke-dashoffset:0;}}
  .lateFade{
    opacity: 0;
    animation-name: fadeIn;
    animation-duration: 1s;
    animation-delay: 2s;
    animation-fill-mode: forwards;
    -webkit-animation-name: fadeIn;
    -webkit-animation-duration: 1s;
    -webkit-animation-delay: 2s;
    -webkit-animation-fill-mode: forwards;
  }
  @keyframes fadeIn{
   0%{
    opacity: 0
   }
   100%{
    opacity: 1
   }
   }
   svg{
        cursor: pointer;
    }
  </style>
  <path class="path1" d="M125.402 187.224L103.334.554" fill="none" stroke="#fff" stroke-width="2.892"/>
  <path class="path2" d="M.594 55.904s20.834 18.152 32.92 24.6c6.09 3.249 12.821 5.269 19.535 6.873 4.496 1.075 9.138 1.47 13.747 1.81 22.131 1.63 44.387.306 66.565 1.084 20.155.708 60.414 3.256 60.414 3.256l64.394 4.703 12.662 1.447" fill="none" stroke="#fff" stroke-width="1.808"/>
  <path class="path3" d="M33.514 80.504s3.66 35.267 15.194 47.029c2.59 2.641 6.794 3.51 10.491 3.618 20.035.58 57.882-16.28 57.882-16.28" fill="none" stroke="#fff" stroke-width="1.085" stroke-linecap="round" stroke-linejoin="round"/>
  <path class="path4" d="M185.093 92.08s3.524-33.283 7.235-49.561C195.558 28.35 205.352.916 205.352.916" fill="none" stroke="#fff" stroke-width="1.808" stroke-linecap="round" stroke-linejoin="round"/>
  <path class="lateFade" d="M137.718 93.658h-10.771c-2.817 0-5.274 2.33-5.274 5.126 0 2.816 2.457 5.104 5.274 5.104h4.142v-7.67h6.629c1.44 0 2.605 1.104 2.605 2.544a2.586 2.586 0 0 1-2.605 2.584h-4.142v2.541h4.142c2.817 0 5.273-2.33 5.273-5.125 0-2.817-2.456-5.104-5.273-5.104"
  data-ignore="true" stroke="#fff" fill="#fff" stroke-width=".597"/>
  <text class="lateFade" color="#fff" style="line-height:1.25;-inkscape-font-specification:Asap;" x="-342.274" y="-239.124" transform="rotate(-97.142 20.425 -293.871)" font-weight="400" font-size="8.163" font-family="Asap" fill="#fff" letter-spacing="0" word-spacing="0" stroke-width=".096">
    <tspan x="-342.274" y="-239.124">GRODZKA</tspan>
  </text>
  <text class="lateFade" color="#fff" style="line-height:1.25;-inkscape-font-specification:Asap;" x="-368.19" y="12.362" transform="rotate(-70.087 -63.83 -379.324)" font-weight="400" font-size="7.142" font-family="Asap" fill="#fff" letter-spacing="0" word-spacing="0" stroke-width=".096">
    <tspan x="-368.19" y="12.362">STOLARSKA</tspan>
  </text>
  <text class="lateFade" color="#fff" style="line-height:1.25;-inkscape-font-specification:Asap;" x="-92.695" y="419.965" transform="rotate(3.787 4848.518 4602.916)" font-weight="400" font-size="8.163" font-family="Asap" fill="#fff" letter-spacing="0" word-spacing="0" stroke-width=".096">
    <tspan x="-92.695" y="419.965">DOMINIKAŃSKA</tspan>
  </text>
  <path class="lateFade" style="line-height:normal;-inkscape-font-specification:Sans;text-indent:0;text-align:start;text-decoration-line:none;text-transform:none;marker:none" d="M150.11 81.19a.224.224 0 1 0-.004.45l1.203.065-1.106.603a.286.176 3.124 0 0-.01.245l1.034.72-3.67-.2a.676.676 0 0 0-.708.634l-.158 2.91a.676.676 0 0 0 .635.709l.028.001a.9.9 0 0 0 .83.72.902.902 0 0 0 .689-.269.896.896 0 0 0 1.559-.283l2.294.125a.896.896 0 1 0 1.519.451.895.895 0 0 0 1.556-.283l.032.002a.676.676 0 0 0 .708-.635l.159-2.91a.676.676 0 0 0-.635-.709l-3.67-.2 1.11-.602a.286.176 3.124 0 0 .014-.249l-1.035-.716 1.204.066a.224.224 0 1 0 .024-.448l-3.582-.195a.224.224 0 0 0-.02-.001zm1.78.684l1.017.704-1.088.59-1.014-.704zm-4.357 1.646l8.507.464a.219.219 0 0 1 .212.236l-.006.112-.896-.049a.224.224 0 0 0-.02 0 .224.224 0 0 0-.216.212l-.073 1.343a.224.224 0 0 0 .212.236l.895.05-.055 1.007a.219.219 0 0 1-.236.211l-8.507-.464a.219.219 0 0 1-.212-.236l.055-1.008.896.05a.224.224 0 0 0 .236-.212l.073-1.344a.224.224 0 0 0-.211-.236l-.896-.048.006-.112a.219.219 0 0 1 .236-.212zm1.416.414a.224.224 0 0 0-.215.213l-.073 1.343a.224.224 0 0 0 .211.236l1.344.073a.224.224 0 0 0 .236-.211l.073-1.343a.224.224 0 0 0-.212-.237l-1.343-.073a.224.224 0 0 0-.02-.001zm2.127.116a.224.224 0 0 0-.215.213l-.074 1.343a.224.224 0 0 0 .212.236l1.343.073a.224.224 0 0 0 .236-.211l.074-1.343a.224.224 0 0 0-.212-.236l-1.343-.074a.224.224 0 0 0-.021 0zm2.127.116a.224.224 0 0 0-.216.213l-.073 1.343a.224.224 0 0 0 .212.236l1.343.074a.224.224 0 0 0 .236-.212l.073-1.343a.224.224 0 0 0-.211-.236l-1.343-.074a.224.224 0 0 0-.021 0zm-5.936.125l.671.037-.049.895-.671-.036zm1.903.104l.895.049-.049.895-.895-.048zm2.126.116l.896.049-.05.895-.895-.048zm2.127.116l.895.05-.048.895-.896-.05zm2.127.116l.671.037-.049.895-.671-.036zm-7.714 2.61l.773.043a.442.442 0 0 1-.4.202.44.44 0 0 1-.373-.244zm1.34.074l.777.042a.443.443 0 0 1-.4.203.445.445 0 0 1-.377-.245zm4.03.22l.776.042a.445.445 0 0 1-.4.203.443.443 0 0 1-.376-.245zm1.346.073l.773.042a.447.447 0 0 1-.773-.042zM76.92 91.861a.224.224 0 1 0 .021.449h1.205l-1.072.662a.286.176 0 0 0 .004.245l1.072.662h-3.675a.676.676 0 0 0-.673.673v2.914c0 .369.304.673.673.673h.028a.9.9 0 0 0 .869.672c.266 0 .507-.119.672-.304a.896.896 0 0 0 1.542-.368h2.298a.896.896 0 1 0 1.541.368.895.895 0 0 0 1.538-.368h.031a.676.676 0 0 0 .673-.673v-2.914a.676.676 0 0 0-.673-.673H79.32l1.075-.662a.286.176 0 0 0 0-.249l-1.072-.658h1.205a.224.224 0 1 0 0-.449h-3.587a.224.224 0 0 0-.021 0zm1.815.585l1.054.648-1.054.648-1.051-.648zm-4.26 1.881h8.52c.127 0 .224.096.224.225v.112h-.897a.224.224 0 0 0-.021 0 .224.224 0 0 0-.203.224v1.345a.224.224 0 0 0 .224.224h.897v1.01a.219.219 0 0 1-.225.223h-8.52a.219.219 0 0 1-.223-.224v-1.009h.896a.224.224 0 0 0 .225-.224v-1.345a.224.224 0 0 0-.225-.224h-.896v-.112c0-.129.096-.225.224-.225zm1.436.337a.224.224 0 0 0-.203.224v1.345a.224.224 0 0 0 .224.224h1.345a.224.224 0 0 0 .224-.224v-1.345a.224.224 0 0 0-.224-.224h-1.345a.224.224 0 0 0-.021 0zm2.13 0a.224.224 0 0 0-.203.224v1.345a.224.224 0 0 0 .224.224h1.345a.224.224 0 0 0 .224-.224v-1.345a.224.224 0 0 0-.224-.224h-1.345a.224.224 0 0 0-.021 0zm2.13 0a.224.224 0 0 0-.203.224v1.345a.224.224 0 0 0 .224.224h1.345a.224.224 0 0 0 .224-.224v-1.345a.224.224 0 0 0-.224-.224h-1.345a.224.224 0 0 0-.021 0zm-5.92.448h.672v.897h-.672zm1.905 0h.897v.897h-.897zm2.13 0h.897v.897h-.897zm2.13 0h.897v.897h-.897zm2.13 0h.673v.897h-.673zm-7.56 3.027h.774a.442.442 0 0 1-.388.224.44.44 0 0 1-.386-.224zm1.342 0h.778a.443.443 0 0 1-.39.224.445.445 0 0 1-.388-.224zm4.036 0h.777a.445.445 0 0 1-.389.224.443.443 0 0 1-.388-.224zm1.348 0h.774a.447.447 0 0 1-.774 0z" fill="#fff" font-weight="400" font-family="Sans" overflow="visible"/>
</svg>